<?xml version="1.0" encoding="utf-8"?>
<!-- Generator: Adobe Illustrator 25.2.0, SVG Export Plug-In . SVG Version: 6.00 Build 0)  -->
<svg version="1.1" id="Lag_1" xmlns="http://www.w3.org/2000/svg" xmlns:xlink="http://www.w3.org/1999/xlink" x="0px" y="0px"
	 viewBox="0 0 202.6 42" style="enable-background:new 0 0 202.6 42;" xml:space="preserve">
<style type="text/css">
	.st0{fill:#A57513;}
	.st1{fill:#FFFFFF;}
</style>
<path class="st0" d="M56.3,0.9C55.7,0.3,54.8,0,53.9,0H4.1C3.2,0,2.3,0.3,1.7,0.9C0.6,1.6,0,2.8,0,4.1v5.5v6.1v5.5
	c0,0.2,0,0.4,0.1,0.5C0.2,23,0.8,24,1.7,24.6c0.7,0.5,1.5,0.8,2.5,0.8h49.8c1.1,0,2,0.7,2.3,1.7c0.1,0.3,0.2,0.5,0.2,0.8v1.7v2.2
	v0.5c0,1.3-1.1,2.5-2.5,2.5H4.1c-1.3,0-2.5-1.1-2.5-2.5v-1.1h6.2v-1.7H1.7H0v1.7v1.1v5.5c0,1.3,0.6,2.5,1.7,3.3
	C2.3,41.7,3.2,42,4.1,42h49.8c0.9,0,1.8-0.3,2.5-0.9c1-0.8,1.7-1.9,1.7-3.3v-5.5v-0.5v-3.9v-1.7v-3.9c0-0.2,0-0.4-0.1-0.5
	c-0.2-1.1-0.7-2.1-1.6-2.7c-0.7-0.5-1.5-0.8-2.5-0.8H4.1c-1.3,0-2.5-1.1-2.5-2.5V9.7V9.6c0.1-1.3,1.1-2.4,2.5-2.4h49.8
	c1.3,0,2.5,1.1,2.5,2.5v1.4h-6.1v1.7H58v-0.3v-1.4V9.7V4.1C58,2.8,57.4,1.6,56.3,0.9z M56.3,37.9c0,1.3-1.1,2.5-2.5,2.5H4.1
	c-1.3,0-2.5-1.1-2.5-2.5v-2.2c0.7,0.5,1.5,0.9,2.5,0.9h49.8c0.9,0,1.8-0.3,2.5-0.9V37.9z M4.1,19.9h49.8c1.2,0,2.1,0.8,2.4,1.9
	c0.1,0.2,0.1,0.4,0.1,0.5v0.5v1.7c-0.7-0.5-1.5-0.8-2.5-0.8H4.1c-1.2,0-2.1-0.8-2.4-1.9c-0.1-0.2-0.1-0.4-0.1-0.5v-2.2
	C2.3,19.6,3.2,19.9,4.1,19.9z M53.9,5.5H4.1c-0.9,0-1.8,0.3-2.5,0.8V4.1c0-1.3,1.1-2.5,2.5-2.5h49.8c1.3,0,2.5,1.1,2.5,2.5v2.2
	C55.7,5.8,54.8,5.5,53.9,5.5z M57.9,8.7c0,0.1,0,0.1,0.1,0.2C57.9,8.8,57.9,8.7,57.9,8.7z"/>
<path class="st1" d="M75.9,28.2c-0.9-0.6-1.6-1.4-2-2.3l1.6-1c0.3,0.7,0.7,1.3,1.3,1.8c0.6,0.4,1.3,0.6,2.2,0.6
	c0.9,0,1.6-0.2,2.2-0.7c0.6-0.5,0.9-1.1,0.9-1.9c0-0.6-0.2-1-0.4-1.4c-0.3-0.4-0.7-0.7-1.1-1c-0.5-0.3-1.1-0.5-1.9-0.9
	c-0.9-0.4-1.7-0.7-2.2-1.1s-1-0.7-1.4-1.3c-0.4-0.5-0.6-1.2-0.6-2.1c0-0.9,0.2-1.6,0.6-2.2c0.4-0.6,0.9-1.1,1.6-1.4
	c0.7-0.3,1.4-0.5,2.2-0.5c0.9,0,1.7,0.2,2.4,0.5c0.7,0.4,1.3,0.9,1.8,1.4L81.7,16c-0.3-0.4-0.7-0.8-1.2-1c-0.5-0.2-1-0.4-1.6-0.4
	c-0.7,0-1.4,0.2-1.9,0.6c-0.5,0.4-0.7,1-0.7,1.7c0,0.5,0.2,1,0.4,1.3c0.3,0.4,0.6,0.6,1.1,0.9c0.4,0.2,1,0.5,1.8,0.8
	c0.9,0.4,1.7,0.7,2.2,1.1s1.1,0.8,1.5,1.4c0.4,0.6,0.6,1.3,0.6,2.2c0,0.9-0.2,1.7-0.6,2.3c-0.4,0.7-1,1.2-1.8,1.5
	C80.7,28.8,79.9,29,79,29C77.9,29,76.8,28.7,75.9,28.2z"/>
<path class="st1" d="M93.4,13h1.8v15.8h-1.8V13z"/>
<path class="st1" d="M119,13v15.8h-1.7L107.6,16v12.8h-1.8V13h1.7l9.7,12.8V13H119z"/>
<path class="st1" d="M129.5,13h4.4c1.4,0,2.8,0.4,4,1.1c1.2,0.7,2.2,1.7,2.9,2.9c0.7,1.2,1.1,2.5,1.1,3.9c0,1.4-0.4,2.8-1.1,3.9
	c-0.7,1.2-1.7,2.2-2.9,2.9c-1.2,0.7-2.5,1.1-4,1.1h-4.4V13z M133.9,27c1.1,0,2.2-0.3,3.1-0.8c0.9-0.5,1.7-1.3,2.2-2.2
	c0.5-0.9,0.8-2,0.8-3.1c0-1.2-0.3-2.2-0.8-3.1c-0.5-0.9-1.3-1.7-2.2-2.2c-0.9-0.5-2-0.8-3.1-0.8h-2.6V27L133.9,27L133.9,27z"/>
<path class="st1" d="M151.9,13h1.8v15.8h-1.8V13z"/>
<path class="st1" d="M168.1,28c-1.2-0.7-2.2-1.7-2.9-2.9c-0.7-1.2-1.1-2.6-1.1-4.1c0-1.5,0.4-2.8,1.1-4.1c0.7-1.2,1.7-2.2,2.9-2.9
	c1.2-0.7,2.6-1.1,4.1-1.1c1,0,2.1,0.2,3.1,0.6c1,0.4,1.9,1,2.6,1.7l-1.3,1.3c-0.6-0.6-1.3-1-2-1.3c-0.8-0.3-1.6-0.5-2.4-0.5
	c-1.2,0-2.2,0.3-3.2,0.9c-1,0.6-1.8,1.3-2.3,2.3c-0.6,1-0.9,2-0.9,3.2c0,1.2,0.3,2.2,0.9,3.2c0.6,1,1.3,1.7,2.3,2.3
	c1,0.6,2,0.9,3.2,0.9c0.8,0,1.6-0.2,2.4-0.5c0.8-0.3,1.5-0.8,2-1.3l1.3,1.3c-0.7,0.7-1.6,1.3-2.6,1.7c-1,0.4-2.1,0.6-3.1,0.6
	C170.7,29,169.3,28.7,168.1,28z"/>
<path class="st1" d="M190.5,28c-1.2-0.7-2.2-1.7-2.9-2.9c-0.7-1.2-1.1-2.6-1.1-4.1c0-1.5,0.4-2.8,1.1-4.1c0.7-1.2,1.7-2.2,2.9-2.9
	c1.2-0.7,2.6-1.1,4.1-1.1c1.5,0,2.8,0.4,4.1,1.1c1.2,0.7,2.2,1.7,2.9,2.9c0.7,1.2,1.1,2.6,1.1,4.1c0,1.5-0.4,2.8-1.1,4.1
	c-0.7,1.2-1.7,2.2-2.9,2.9c-1.2,0.7-2.6,1.1-4.1,1.1C193,29,191.7,28.7,190.5,28z M197.7,26.4c1-0.6,1.7-1.3,2.3-2.3
	c0.6-1,0.9-2,0.9-3.2c0-1.2-0.3-2.2-0.9-3.2c-0.6-1-1.3-1.7-2.3-2.3c-1-0.6-2-0.9-3.2-0.9c-1.2,0-2.2,0.3-3.2,0.9
	c-1,0.6-1.7,1.3-2.3,2.3c-0.6,1-0.9,2-0.9,3.2c0,1.2,0.3,2.2,0.9,3.2c0.6,1,1.3,1.7,2.3,2.3c1,0.6,2,0.9,3.2,0.9
	C195.7,27.2,196.7,27,197.7,26.4z"/>
</svg>
