<svg xmlns="http://www.w3.org/2000/svg" xmlns:xlink="http://www.w3.org/1999/xlink" id="Layer_1" x="0px" y="0px" viewBox="0 0 3002.9 572.1" style="enable-background:new 0 0 3002.9 572.1;" xml:space="preserve"><style type="text/css">	.st0{fill:#FFFFFF;}</style><path class="st0" d="M1641.9,406.2h-152.3c-24.3,0-40.9-7.1-50.6-21.7c-8.5-12.8-10.8-29.5-13.2-47.1c-2.4-17.5-1.8-47.1,1.6-77.5 c1.8-16.2,6.5-28.6,14.2-38c7.1-8.5,16.6-14.4,29-17.9c12.8-3.6,30-5.5,51.1-5.5c21.9,0.1,43.8,1.8,65.6,4.9 c48.9,7.3,54.6,40.2,54.6,64.3L1641.9,406.2L1641.9,406.2z M1521.7,213.7c-19.7,0-35.6,1.6-47,4.9c-19.9,5.7-29.6,18.5-32.3,43 c-3.3,29.2-3.9,57.4-1.7,73.7c2.2,15.9,4.3,30.9,10.8,40.8c4.3,6.4,12.9,15,38,15h137.1V267.7c0-14.5-2.5-24.8-7.9-32.3 c-6.4-9-17.4-14.5-33.7-16.9C1564,215.4,1542.9,213.9,1521.7,213.7L1521.7,213.7z"></path><path class="st0" d="M1645.5,407c0,1.6-1.3,2.9-2.9,2.9c0,0,0,0,0,0h-153c-25.6,0-43.2-7.6-53.7-23.3c-9-13.4-11.3-30.5-13.8-48.6 c-2.4-17.7-1.8-47.7,1.6-78.4c1.9-16.9,6.8-29.9,15-39.9c7.6-9.1,17.6-15.3,30.8-19.1s30.7-5.6,52.1-5.6c22.1,0.1,44.2,1.8,66.1,4.9 c57.7,8.6,57.7,53.2,57.7,67.8L1645.5,407z M1521.7,217.4c-19.5,0-34.9,1.6-46,4.8c-18.5,5.3-27.1,16.9-29.7,40 c-3.2,28.9-3.9,56.8-1.7,72.8c2.1,15.4,4.1,30,10.3,39.3c3.8,5.7,11.6,13.3,35,13.3h133.5V267.7c0-13.7-2.3-23.3-7.2-30.2 c-5.8-8.1-16.1-13.2-31.3-15.5C1563.7,219,1542.7,217.5,1521.7,217.4z"></path><path class="st0" d="M2186,409.9h-16.7c-1.6,0-2.9-1.3-2.9-2.9V203.1c0-1.6,1.3-2.9,2.9-2.9h16.7c1.6,0,2.9,1.3,2.9,2.9c0,0,0,0,0,0 V407C2188.9,408.6,2187.6,409.9,2186,409.9z M2186,142.5h-16.7c-1.6,0-2.9-1.3-2.9-2.9c0,0,0,0,0,0v-20.2c0-1.6,1.3-2.9,2.9-2.9 c0,0,0,0,0,0h16.7c1.6,0,2.9,1.3,2.9,2.9v20.2C2188.9,141.2,2187.6,142.5,2186,142.5L2186,142.5z"></path><path class="st0" d="M1205,407c0,1.6-1.3,2.9-2.9,2.9c0,0,0,0,0,0h-153c-25.6,0-43.2-7.6-53.6-23.3c-9-13.5-11.3-30.5-13.8-48.6 c-2.4-17.7-1.8-47.7,1.6-78.4c1.9-16.9,6.8-29.9,15-39.9c7.5-9.1,17.6-15.3,30.8-19.1c13.2-3.8,30.7-5.6,52.1-5.6 c22.1,0.1,44.2,1.8,66.1,4.9c57.7,8.5,57.7,53.1,57.7,67.8V407z M1081.2,217.4c-19.4,0-34.9,1.6-46,4.8 c-18.5,5.3-27.1,16.9-29.7,39.9c-3.2,28.9-3.9,56.8-1.7,72.8c2.2,15.5,4.2,30.1,10.3,39.3c3.8,5.7,11.6,13.3,35,13.3h133.5V267.7 c0-13.7-2.3-23.3-7.2-30.2c-5.8-8.1-16.1-13.2-31.3-15.5C1123.2,219,1102.2,217.5,1081.2,217.4z"></path><path class="st0" d="M930,407c0,1.6-1.3,2.9-2.9,2.9l0,0h-153c-25.6,0-43.2-7.6-53.6-23.3c-9-13.5-11.3-30.6-13.8-48.6 c-2.4-17.7-1.8-47.7,1.6-78.4c1.9-16.9,6.8-29.9,15.1-39.9c7.5-9.1,17.6-15.3,30.8-19.1c33.3-9.5,90-4.9,118.3-0.7 c14.4,2.1,26.2,6.6,35.2,13.4v-93.7c0-1.6,1.3-2.9,2.9-2.9c0,0,0,0,0,0h16.6c1.6,0,2.9,1.3,2.9,2.9c0,0,0,0,0,0L930,407z  M806.1,217.3c-19.2,0-34.7,1.6-45.9,4.8c-18.5,5.3-27.1,16.9-29.7,39.9c-3.3,28.9-3.9,56.8-1.7,72.8c2.1,15.5,4.1,30.1,10.3,39.3 c3.8,5.7,11.6,13.3,35,13.3h133.5V267.4c0-13.6-2.3-23-7.2-29.9c-5.8-8.1-16.1-13.2-31.3-15.5C848.2,219,827.2,217.4,806.1,217.3z"></path><path class="st0" d="M2576.3,409.9c-25.6,0-43.2-7.6-53.6-23.3c-9-13.4-11.3-30.5-13.8-48.5c-2.5-17.9-1.9-47.9,1.6-78.4 c1.9-16.9,6.8-29.9,15.1-39.9c7.5-9.1,17.6-15.3,30.8-19.1c33.3-9.5,90-4.9,118.2-0.7c14.4,2.1,26.2,6.6,35.2,13.4v-94 c0-1.6,1.3-2.9,2.9-2.9h16.6c1.6,0,2.9,1.3,2.9,2.9V407c0,1.6-1.3,2.9-2.9,2.9L2576.3,409.9z M2608.3,217.3 c-19.2,0-34.6,1.6-45.9,4.8c-18.5,5.3-27.1,16.9-29.7,39.9c-3.2,29-3.9,56.8-1.7,72.8c2.1,15.4,4.1,30,10.3,39.3 c3.8,5.7,11.6,13.3,35,13.3h133.5V267.7c0-13.7-2.3-23.3-7.2-30.2c-5.8-8.1-16.1-13.2-31.3-15.5 C2650.5,219,2629.4,217.5,2608.3,217.3L2608.3,217.3z"></path><path class="st0" d="M2456.9,409.9H2441c-1.6,0-2.9-1.3-2.9-2.9c0,0,0,0,0,0V267.7c0-13.7-2.3-23.3-7.2-30.2 c-5.8-8.1-16.1-13.2-31.3-15.5c-37.6-5.4-64.5-5.4-103,0c-15.2,2.3-25.4,7.3-31.2,15.5c-5,6.9-7.2,16.5-7.2,30.2V407 c0,1.6-1.3,2.9-2.9,2.9h-16.6c-1.6,0-2.9-1.3-2.9-2.9c0,0,0,0,0,0V267.7c0-14.7,0-59.3,57.7-67.8h0.3c40.6-5.7,69.2-5.7,109.1,0 c57.7,8.6,57.7,53.2,57.7,67.9V407c0,1.6-1.3,2.9-2.9,2.9c0,0,0,0,0,0L2456.9,409.9z"></path><path class="st0" d="M2983.7,263.6c-1.6,0.1-3-1.1-3.1-2.7c0,0,0,0,0,0c-0.2-2.6-0.5-5.2-0.9-7.8c-0.6-3.2-1.4-6.4-2.6-9.4 c-1-2.5-2.4-4.9-4-7.1c-5.8-7.4-15.4-12.4-30.3-14.6c-26.5-3.9-80.8-8.4-110.4,0c-13.2,3.8-19.8,10.9-24.5,26.2 c-0.6,4.1-0.7,8.2-0.4,12.3c0.8,10.1,5.2,16.2,14,19.2c12.2,4.2,41.9,7.1,68.1,9.7l0.6,0.1c29.3,2.9,56.9,5.6,72,10.4 c22,7.1,31.8,21.6,36.1,32.6c2.8,7.1,4.2,14.6,4,22.2c0,5.8-1.1,20.9-9.8,32.5c-9,11.9-19.9,22.6-54.5,22.6h-91.6 c-27.3-0.2-48.6-9.3-58.6-35.2c-3.4-8.9-5.2-19-6.4-27.2l-1.2-8.1c-0.2-1.6,0.9-3,2.4-3.3c0.1,0,0.1,0,0.2,0l16.6-1.3 c1.5-0.1,2.9,1,3.1,2.5l1.2,8.5c1.1,6.5,2.1,13,4.9,20.9c4.9,13.3,15.5,20.9,37.6,20.9h91.6c26.4,0,31.1-6.3,36.6-13.6 c4.2-5.5,5.3-14.8,5.3-19.4v-0.5c0.1-1.2,0.9-24.4-24.6-32.6c-13-4.2-42.1-7-67.8-9.5c-30.1-2.9-58.5-5.7-73.2-10.8 c-17.3-6-27.6-19.7-29-38.7c-0.7-8.9,0.2-16.8,1.3-20.4c6.9-22.7,19.2-35.4,39.8-41.3c33.3-9.5,91.6-4.9,119.9-0.7 c20.1,3,34.7,10.9,44.5,23.2c3.4,4.4,6.1,9.2,8.1,14.4c1.6,4.3,2.7,8.8,3.4,13.3c0.5,2.8,0.8,6.1,0.9,8.4c0.1,1.6-1.1,2.9-2.6,3.1 L2983.7,263.6z"></path><path class="st0" d="M2116,409.9h-15.9c-1.6,0-2.9-1.3-2.9-2.9c0,0,0,0,0,0V267.7c0-13.8-2.3-23.4-7.2-30.2 c-5.8-8.1-16.1-13.2-31.3-15.5c-37.6-5.4-64.5-5.4-103,0c-15.2,2.3-25.4,7.3-31.2,15.5c-4.9,6.9-7.2,16.5-7.2,30.2V407 c0,1.6-1.3,2.9-2.9,2.9l0,0h-16.7c-1.6,0-2.9-1.3-2.9-2.9c0,0,0,0,0,0V267.7c0-13.7-2.3-23.3-7.2-30.2c-5.8-8.1-16.1-13.2-31.3-15.5 c-37.6-5.4-64.5-5.4-103,0c-15.2,2.3-25.4,7.3-31.3,15.5c-4.9,6.9-7.2,16.5-7.2,30.2V407c0,1.6-1.3,2.9-2.9,2.9l0,0h-16.6 c-1.6,0-2.9-1.3-2.9-2.9c0,0,0,0,0,0V267.7c0-14.7,0-59.3,57.7-67.8h0.3c40.6-5.7,69.2-5.7,109.1,0c21.4,3.2,37.1,11.6,46.5,24.9 c9.4-13.3,25-21.7,46.4-24.9h0.3c40.7-5.7,69.2-5.7,109.1,0c57.7,8.6,57.7,53.2,57.7,67.9V407c0,1.6-1.3,2.9-2.9,2.9L2116,409.9z"></path><path class="st0" d="M1382.7,407c0,1.6-1.3,2.9-2.9,2.9c0,0,0,0,0,0H1324c-25.6,0-43.2-7.6-53.7-23.3c-9-13.5-11.3-30.6-13.8-48.6 c-1.1-9.1-1.6-18.3-1.5-27.4V119.3c0-1.6,1.3-2.9,2.9-2.9l0,0h16.6c1.6,0,2.9,1.3,2.9,2.9l0,0v95.8c7-6.6,15.7-11.4,26.5-14.5 c11.2-3.2,25.8-5.1,43.4-5.5l8.3-0.2c1.6-0.1,2.9,1.2,3,2.8c0,0,0,0,0,0.1l0.4,16.6c0.1,1.6-1.2,2.9-2.8,3c0,0,0,0,0,0l-8.3,0.2 c-15.7,0.4-28.4,2-37.9,4.7c-18.5,5.3-27.1,16.9-29.7,39.9c-1.8,15.5-2.8,31-3,46.6v1.8c-0.1,8.1,0.3,16.3,1.3,24.4 c2.1,15.5,4.2,30.1,10.3,39.3c3.8,5.7,11.6,13.3,35,13.3h55.8c1.6,0,2.9,1.3,2.9,2.9L1382.7,407z"></path><path class="st0" d="M570.6,278.4L492.7,90.3c-2-4.9-5.9-8.8-10.8-10.8L293.7,1.5c-4.9-2-10.4-2-15.3,0L90.3,79.4 c-4.9,2-8.8,5.9-10.8,10.8L1.5,278.4c-2,4.9-2,10.4,0,15.3l77.9,188.1c2,4.9,5.9,8.8,10.8,10.8l188.1,77.9c4.9,2,10.4,2,15.3,0 l188.1-77.9c4.9-2,8.8-5.9,10.8-10.8l77.9-188.1C572.6,288.8,572.6,283.3,570.6,278.4z M517.1,358.1L411.8,492.8 c-3.3,4.2-8.1,6.9-13.3,7.5l-169.7,20.8c-5.3,0.6-10.6-0.8-14.8-4.1L79.3,411.8c-4.2-3.3-6.9-8.1-7.5-13.3L51,228.8 c-0.6-5.3,0.8-10.6,4.1-14.8L160.3,79.3c3.3-4.2,8.1-6.9,13.3-7.5L343.3,51c5.3-0.6,10.6,0.8,14.8,4.1l134.7,105.2 c4.2,3.3,6.9,8.1,7.5,13.3l20.8,169.7C521.8,348.6,520.3,353.9,517.1,358.1L517.1,358.1z"></path></svg>