<svg width="70" height="66" viewBox="0 0 70 66" fill="none" xmlns="http://www.w3.org/2000/svg">
<g clip-path="url(#clip0_29_3367)">
<path d="M9.34759 15.5139V39.0019H25.0922V6.04027L35.1326 0V49.5234H0V21.1367L9.34759 15.5139Z" fill="url(#paint0_linear_29_3367)"/>
<path d="M35.1326 0L69.8718 21.1367V49.5234H62.7478V26.2995L46.1137 17.4648V49.5234H35.0557L35.1326 0Z" fill="url(#paint1_linear_29_3367)"/>
<path d="M62.7477 26.2993L46.011 30.0734V49.5233H62.7477V26.2993Z" fill="url(#paint2_linear_29_3367)"/>
<path d="M62.7476 26.2995L46.1135 17.4648V30.0736L62.7476 26.2995Z" fill="#EF7A2E"/>
<path d="M9.39897 15.5308L25.0923 20.881V39.0018L9.34766 38.8995L9.39897 15.5308Z" fill="url(#paint3_linear_29_3367)"/>
<path d="M8.40692 65.8294L5.21694 60.8456H2.05261V65.8294H0.196777V53.0503H5.25114C7.88523 53.0503 9.63844 54.6094 9.63844 56.9607C9.65711 57.7534 9.4171 58.5307 8.95446 59.1759C8.49183 59.8211 7.83154 60.2994 7.07277 60.5389L10.5792 65.8465L8.40692 65.8294ZM2.05261 59.3291H4.91761C6.62805 59.3291 7.71419 58.3749 7.71419 56.9437C7.71419 55.5124 6.63661 54.5582 5.02023 54.5582H2.05261V59.3291Z" fill="#fff"/>
<path d="M11.9989 53.5699C12.0005 53.3533 12.0665 53.142 12.1883 52.9626C12.3102 52.7832 12.4826 52.6436 12.6838 52.5615C12.8851 52.4794 13.1062 52.4584 13.3194 52.501C13.5326 52.5437 13.7284 52.6482 13.8822 52.8014C14.0359 52.9546 14.1408 53.1496 14.1837 53.362C14.2265 53.5744 14.2054 53.7947 14.1229 53.9951C14.0405 54.1956 13.9004 54.3673 13.7203 54.4887C13.5402 54.6101 13.3281 54.6758 13.1106 54.6775C12.9634 54.6822 12.8167 54.6568 12.6796 54.6028C12.5426 54.5488 12.4181 54.4674 12.3139 54.3636C12.2097 54.2598 12.128 54.1358 12.0738 53.9993C12.0196 53.8628 11.9941 53.7167 11.9989 53.5699ZM12.2298 56.5943H14.0001V65.8294H12.264L12.2298 56.5943Z" fill="#fff"/>
<path d="M16.1809 64.9777L16.8822 63.8957C17.6802 64.3947 18.6087 64.6467 19.5505 64.6199C20.6452 64.6199 21.3721 64.1172 21.3721 63.359C21.3721 62.6008 20.6281 62.2345 19.6018 61.9363L18.7466 61.6977C17.2328 61.2803 16.1809 60.7095 16.1809 59.2782C16.1809 57.5743 17.5749 56.4242 19.6018 56.4242C20.7686 56.3703 21.9248 56.6671 22.9201 57.2761L22.1589 58.4518C21.4258 58.0063 20.5801 57.7787 19.7215 57.7958C18.6867 57.7958 18.0111 58.2644 18.0111 58.9886C18.0111 59.7127 18.6782 60.0109 19.5761 60.2665L20.4314 60.5135C21.9195 60.9139 23.1852 61.6381 23.1852 63.1886C23.1852 64.8925 21.7484 65.9745 19.5248 65.9745C18.3275 66.0417 17.1444 65.689 16.1809 64.9777Z" fill="#fff"/>
<path d="M28.4189 61.7146H27.0506V65.8295H25.2803V52.3433H27.0506V60.2408H28.436L31.7372 56.5945H33.9779L29.8814 60.9734L34.1575 65.8295H31.9425L28.4189 61.7146Z" fill="#fff"/>
<path d="M34.0122 53.0332H35.9878L40.452 63.5632L44.8821 53.0332H46.8577L41.2987 65.8123H39.5883L34.0122 53.0332Z" fill="#fff"/>
<path d="M47.9866 53.5699C47.9883 53.3533 48.0543 53.142 48.1761 52.9626C48.298 52.7832 48.4704 52.6436 48.6716 52.5615C48.8729 52.4794 49.094 52.4584 49.3072 52.501C49.5204 52.5437 49.7162 52.6482 49.87 52.8014C50.0237 52.9546 50.1286 53.1496 50.1715 53.362C50.2143 53.5744 50.1932 53.7947 50.1107 53.9951C50.0283 54.1956 49.8882 54.3673 49.7081 54.4887C49.528 54.6101 49.3159 54.6758 49.0984 54.6775C48.9511 54.6822 48.8044 54.6568 48.6674 54.6028C48.5304 54.5488 48.4059 54.4674 48.3017 54.3636C48.1975 54.2598 48.1158 54.1358 48.0616 53.9993C48.0074 53.8628 47.9819 53.7167 47.9866 53.5699ZM48.209 56.5943H49.9793V65.8294H48.209V56.5943Z" fill="#fff"/>
<path d="M52.656 52.3433H54.4263V65.8295H52.656V52.3433Z" fill="#fff"/>
<path d="M57.1289 52.3433H58.9078V65.8295H57.1289V52.3433Z" fill="#fff"/>
<path d="M69.9573 61.8512H62.8932C63.0728 63.5551 63.9537 64.603 65.57 64.603C66.0892 64.602 66.6008 64.4788 67.063 64.2434C67.5252 64.008 67.925 63.6671 68.2298 63.2484L69.581 63.9811C69.1374 64.6229 68.5395 65.1439 67.8419 65.4966C67.1443 65.8493 66.3691 66.0224 65.5872 66.0002C62.859 66.0002 61.0203 64.1003 61.0203 61.2463C61.0203 58.3923 62.8077 56.4243 65.5187 56.4243C68.2298 56.4243 70.0001 58.2901 70.0001 61.093C70.0077 61.3465 69.9934 61.6001 69.9573 61.8512ZM62.8932 60.6414H68.1699C68.016 58.8779 67.0496 57.8215 65.5187 57.8215C63.9879 57.8215 63.0557 58.895 62.8932 60.6414Z" fill="#fff"/>
</g>
<defs>
<linearGradient id="paint0_linear_29_3367" x1="0" y1="24.7575" x2="35.1326" y2="24.7575" gradientUnits="userSpaceOnUse">
<stop stop-color="#282727"/>
<stop offset="1" stop-color="#5B5652"/>
</linearGradient>
<linearGradient id="paint1_linear_29_3367" x1="35.0557" y1="24.7575" x2="69.8718" y2="24.7575" gradientUnits="userSpaceOnUse">
<stop stop-color="#4E4842"/>
<stop offset="0.64" stop-color="#504A44"/>
<stop offset="0.87" stop-color="#55504B"/>
<stop offset="1" stop-color="#5C5753"/>
</linearGradient>
<linearGradient id="paint2_linear_29_3367" x1="46.011" y1="37.9113" x2="62.7477" y2="37.9113" gradientUnits="userSpaceOnUse">
<stop stop-color="#F8B051"/>
<stop offset="1" stop-color="#FFE149"/>
</linearGradient>
<linearGradient id="paint3_linear_29_3367" x1="9.34766" y1="27.262" x2="25.0923" y2="27.262" gradientUnits="userSpaceOnUse">
<stop stop-color="#E9482E"/>
<stop offset="1" stop-color="#F6A000"/>
</linearGradient>
<clipPath id="clip0_29_3367">
<rect width="70" height="66" fill="white"/>
</clipPath>
</defs>
</svg>
